<svg viewBox="0 0 800 600" xmlns="http://www.w3.org/2000/svg">
  <!-- 背景 -->
  <rect width="800" height="600" fill="#f8f9fa"/>
  
  <!-- AWS クラウド領域 -->
  <rect x="50" y="50" width="700" height="500" rx="20" ry="20" fill="#ffffff" stroke="#232f3e" stroke-width="2"/>
  <text x="75" y="85" font-family="Arial" font-size="22" fill="#232f3e">AWS Cloud</text>
  
  <!-- 外部システム/プロデューサー -->
  <rect x="80" y="150" width="140" height="80" rx="10" ry="10" fill="#FF9900" stroke="#232f3e" stroke-width="2"/>
  <text x="150" y="185" font-family="Arial" font-size="14" fill="#232f3e" text-anchor="middle">外部システム</text>
  <text x="150" y="205" font-family="Arial" font-size="14" fill="#232f3e" text-anchor="middle">(プロデューサー)</text>
  
  <!-- Amazon SQS 領域 -->
  <rect x="280" y="120" width="240" height="290" rx="10" ry="10" fill="#f9f9f9" stroke="#232f3e" stroke-width="1" stroke-dasharray="5,5"/>
  <text x="400" y="145" font-family="Arial" font-size="16" fill="#232f3e" text-anchor="middle">Amazon SQS</text>
  
  <!-- メインSQSキュー -->
  <rect x="320" y="170" width="160" height="80" rx="10" ry="10" fill="#FF4F8B" stroke="#232f3e" stroke-width="2"/>
  <text x="400" y="200" font-family="Arial" font-size="16" fill="#ffffff" text-anchor="middle">メインキュー</text>
  <text x="400" y="220" font-family="Arial" font-size="12" fill="#ffffff" text-anchor="middle">sqs-go-runner-queue</text>
  <text x="400" y="240" font-family="Arial" font-size="10" fill="#ffffff" text-anchor="middle">ロングポーリング (20秒)</text>
  
  <!-- デッドレターキュー -->
  <rect x="320" y="310" width="160" height="60" rx="10" ry="10" fill="#FF9999" stroke="#232f3e" stroke-width="2"/>
  <text x="400" y="345" font-family="Arial" font-size="14" fill="#ffffff" text-anchor="middle">デッドレターキュー</text>
  <text x="400" y="365" font-family="Arial" font-size="10" fill="#ffffff" text-anchor="middle">sqs-go-runner-dlq</text>
  
  <!-- デッドレターへの矢印 -->
  <path d="M 400 250 L 400 310" stroke="#232f3e" stroke-width="2" stroke-dasharray="5,5" fill="none"/>
  <polygon points="395,300 400,310 405,300" fill="#232f3e"/>
  <text x="420" y="285" font-family="Arial" font-size="10" fill="#232f3e">5回失敗後</text>
  
  <!-- Amazon ECR -->
  <rect x="120" y="300" width="120" height="60" rx="10" ry="10" fill="#99C0FF" stroke="#232f3e" stroke-width="2"/>
  <text x="180" y="330" font-family="Arial" font-size="14" fill="#232f3e" text-anchor="middle">Amazon ECR</text>
  <text x="180" y="345" font-family="Arial" font-size="10" fill="#232f3e" text-anchor="middle">コンテナイメージ</text>
  
  <!-- App Runner 領域 -->
  <rect x="580" y="120" width="160" height="290" rx="10" ry="10" fill="#f9f9f9" stroke="#232f3e" stroke-width="1" stroke-dasharray="5,5"/>
  <text x="660" y="145" font-family="Arial" font-size="16" fill="#232f3e" text-anchor="middle">AWS App Runner</text>
  
  <!-- Goアプリケーション -->
  <rect x="600" y="160" width="120" height="100" rx="5" ry="5" fill="#00ADD8" stroke="#232f3e" stroke-width="2"/>
  <text x="660" y="200" font-family="Arial" font-size="16" fill="#ffffff" text-anchor="middle">Go App</text>
  <text x="660" y="220" font-family="Arial" font-size="12" fill="#ffffff" text-anchor="middle">sqs-go-runner</text>
  <text x="660" y="240" font-family="Arial" font-size="10" fill="#ffffff" text-anchor="middle">SQSコンシューマー</text>
  
  <!-- goroutine処理部分 -->
  <rect x="610" y="280" width="100" height="110" rx="5" ry="5" fill="#ffffff" stroke="#00ADD8" stroke-width="2"/>
  <text x="660" y="300" font-family="Arial" font-size="12" fill="#00ADD8" text-anchor="middle">並列処理</text>
  <text x="660" y="315" font-family="Arial" font-size="10" fill="#00ADD8" text-anchor="middle">goroutines</text>
  <line x1="620" y1="320" x2="700" y2="320" stroke="#00ADD8" stroke-width="1"/>
  <text x="650" y="335" font-family="Arial" font-size="10" fill="#00ADD8">・タスク処理</text>
  <text x="650" y="350" font-family="Arial" font-size="10" fill="#00ADD8">・通知処理</text>
  <text x="650" y="365" font-family="Arial" font-size="10" fill="#00ADD8">・データ同期</text>
  <text x="650" y="380" font-family="Arial" font-size="10" fill="#00ADD8">・その他</text>
  
  <!-- ECRからApp Runnerへの矢印 -->
  <path d="M 240 320 C 450 320, 450 210, 600 210" stroke="#232f3e" stroke-width="2" stroke-dasharray="5,5" fill="none"/>
  <polygon points="590,205 600,210 590,215" fill="#232f3e"/>
  <text x="400" y="305" font-family="Arial" font-size="10" fill="#232f3e">イメージデプロイ</text>
  
  <!-- メッセージ送信矢印 (外部システム→SQS) -->
  <path d="M 220 190 L 320 190" stroke="#232f3e" stroke-width="2" fill="none"/>
  <polygon points="310,185 320,190 310,195" fill="#232f3e"/>
  <text x="270" y="180" font-family="Arial" font-size="12" fill="#232f3e">SendMessage</text>
  
  <!-- メッセージ受信矢印 (SQS→App Runner) -->
  <path d="M 480 190 L 600 190" stroke="#232f3e" stroke-width="2" fill="none"/>
  <polygon points="590,185 600,190 590,195" fill="#232f3e"/>
  <text x="535" y="180" font-family="Arial" font-size="12" fill="#232f3e">ReceiveMessage</text>
  
  <!-- 削除矢印 -->
  <path d="M 600 215 C 560 240, 530 240, 490 215" stroke="#232f3e" stroke-width="1" stroke-dasharray="3,3" fill="none"/>
  <polygon points="500,220 490,215 500,210" fill="#232f3e"/>
  <text x="545" y="250" font-family="Arial" font-size="10" fill="#232f3e">DeleteMessage</text>
  
  <!-- CloudWatch Logs -->
  <rect x="600" y="420" width="120" height="60" rx="10" ry="10" fill="#FF9900" stroke="#232f3e" stroke-width="2"/>
  <text x="660" y="450" font-family="Arial" font-size="14" fill="#232f3e" text-anchor="middle">CloudWatch</text>
  <text x="660" y="470" font-family="Arial" font-size="12" fill="#232f3e" text-anchor="middle">Logs</text>
  
  <!-- App Runner → CloudWatch Logs -->
  <path d="M 660 390 L 660 420" stroke="#232f3e" stroke-width="2" stroke-dasharray="5,5" fill="none"/>
  <polygon points="655,410 660,420 665,410" fill="#232f3e"/>
  <text x="670" y="410" font-family="Arial" font-size="10" fill="#232f3e">ログ</text>
  
  <!-- タイトル -->
  <text x="400" y="530" font-family="Arial" font-size="20" font-weight="bold" fill="#232f3e" text-anchor="middle">SQS Go Runner アーキテクチャ</text>
</svg>
